<svg width="72" height="69" viewBox="0 0 72 69" fill="none" xmlns="http://www.w3.org/2000/svg">
<path d="M32.0872 22.068C32.0872 16.2413 31.2592 13.328 29.6032 13.328C28.5605 13.328 27.1805 14.432 25.4632 16.64C23.7458 18.7867 22.0285 21.516 20.3112 24.828C18.5938 28.0787 17.1218 31.912 15.8952 36.328C14.6685 40.744 14.0552 44.9147 14.0552 48.84C14.0552 54.728 15.0365 57.672 16.9992 57.672C18.6552 57.672 20.6792 55.648 23.0712 51.6C25.4632 47.4907 27.5485 42.584 29.3272 36.88C31.1672 31.1147 32.0872 26.1773 32.0872 22.068ZM37.2392 51.416C34.9085 56.3227 31.9338 60.4627 28.3152 63.836C24.6965 67.148 20.8018 68.804 16.6312 68.804C12.4605 68.804 8.71916 66.6267 5.40716 62.272C2.15649 57.856 0.531155 53.1027 0.531155 48.012C0.531155 42.86 1.42049 37.3707 3.19916 31.544C4.97782 25.656 7.24716 20.5347 10.0072 16.18C12.7672 11.764 15.8645 8.176 19.2992 5.416C22.7952 2.656 26.1685 1.276 29.4192 1.276C34.2645 1.276 38.0978 2.99333 40.9192 6.428C43.7405 9.86266 45.1512 14.7693 45.1512 21.148C45.1512 25.5027 44.4152 30.4093 42.9432 35.868C41.5325 41.3267 39.6312 46.5093 37.2392 51.416ZM71.0671 10.384C71.0671 14.248 70.5151 18.6027 69.4111 23.448C68.3071 28.232 67.2645 32.4947 66.2831 36.236C65.3018 39.9773 64.4125 43.596 63.6151 47.092C62.8791 50.588 62.2351 53.44 61.6831 55.648C61.1925 57.7947 60.6098 60.0027 59.9351 62.272C58.5858 66.6267 57.1138 68.804 55.5191 68.804C54.1085 68.804 52.4831 67.9147 50.6431 66.136C48.8645 64.296 47.9751 62.64 47.9751 61.168C47.9751 59.696 48.6498 56.3227 49.9991 51.048C51.3485 45.7733 52.6978 38.8733 54.0471 30.348C55.4578 21.7613 56.1631 12.8373 56.1631 3.57599C56.1631 1.79733 57.0525 0.907996 58.8311 0.907996C60.6711 0.907996 63.1551 2.196 66.2831 4.772C69.4725 7.348 71.0671 9.21866 71.0671 10.384Z" fill="#6EE3D6"/>
</svg>
