<svg width="94" height="68" viewBox="0 0 94 68" fill="none" xmlns="http://www.w3.org/2000/svg">
<path d="M31.6497 21.068C31.6497 15.2413 30.8217 12.328 29.1657 12.328C28.123 12.328 26.743 13.432 25.0257 15.64C23.3083 17.7867 21.591 20.516 19.8737 23.828C18.1563 27.0787 16.6843 30.912 15.4577 35.328C14.231 39.744 13.6177 43.9147 13.6177 47.84C13.6177 53.728 14.599 56.672 16.5617 56.672C18.2177 56.672 20.2417 54.648 22.6337 50.6C25.0257 46.4907 27.111 41.584 28.8897 35.88C30.7297 30.1147 31.6497 25.1773 31.6497 21.068ZM36.8017 50.416C34.471 55.3227 31.4963 59.4627 27.8777 62.836C24.259 66.148 20.3643 67.804 16.1937 67.804C12.023 67.804 8.28166 65.6267 4.96966 61.272C1.71899 56.856 0.0936553 52.1027 0.0936553 47.012C0.0936553 41.86 0.982989 36.3707 2.76166 30.544C4.54032 24.656 6.80966 19.5347 9.56966 15.18C12.3297 10.764 15.427 7.176 18.8617 4.416C22.3577 1.656 25.731 0.275996 28.9817 0.275996C33.827 0.275996 37.6603 1.99333 40.4817 5.428C43.303 8.86266 44.7137 13.7693 44.7137 20.148C44.7137 24.5027 43.9777 29.4093 42.5057 34.868C41.095 40.3267 39.1937 45.5093 36.8017 50.416ZM59.9576 55.292C70.9363 53.268 79.247 52.256 84.8896 52.256C90.5936 52.256 93.4456 53.4827 93.4456 55.936C93.4456 58.2667 88.5696 60.7813 78.8176 63.48C69.127 66.1787 61.675 67.528 56.4616 67.528C54.315 67.528 51.7083 66.148 48.6416 63.388C45.575 60.628 44.0416 58.1747 44.0416 56.028C44.0416 54.6173 47.967 50.692 55.8176 44.252C59.0683 41.5533 62.319 38.732 65.5696 35.788C68.8203 32.7827 71.5803 29.716 73.8496 26.588C76.1803 23.46 77.3456 20.6693 77.3456 18.216C77.3456 15.7013 76.1803 14.444 73.8496 14.444C72.071 14.444 70.4763 15.1187 69.0656 16.468C67.7163 17.756 66.643 19.0747 65.8456 20.424C65.1096 21.712 64.5576 22.356 64.1896 22.356C62.595 22.356 60.571 21.4973 58.1176 19.78C55.7256 18.0013 54.5296 16.468 54.5296 15.18C54.5296 11.684 56.3696 8.372 60.0496 5.244C63.791 2.05466 68.2683 0.459994 73.4816 0.459994C78.7563 0.459994 82.8963 2.08533 85.9016 5.336C88.907 8.52533 90.4096 12.604 90.4096 17.572C90.4096 24.2573 87.527 30.9733 81.7616 37.72C76.0576 44.4667 68.7896 50.324 59.9576 55.292Z" fill="#6EE3D6"/>
</svg>
