<svg width="92" height="68" viewBox="0 0 92 68" fill="none" xmlns="http://www.w3.org/2000/svg">
<path d="M31.8118 21.068C31.8118 15.2413 30.9838 12.328 29.3278 12.328C28.2851 12.328 26.9051 13.432 25.1878 15.64C23.4704 17.7867 21.7531 20.516 20.0358 23.828C18.3184 27.0787 16.8464 30.912 15.6198 35.328C14.3931 39.744 13.7798 43.9147 13.7798 47.84C13.7798 53.728 14.7611 56.672 16.7238 56.672C18.3798 56.672 20.4038 54.648 22.7958 50.6C25.1878 46.4907 27.2731 41.584 29.0518 35.88C30.8918 30.1147 31.8118 25.1773 31.8118 21.068ZM36.9638 50.416C34.6331 55.3227 31.6584 59.4627 28.0398 62.836C24.4211 66.148 20.5264 67.804 16.3558 67.804C12.1851 67.804 8.44376 65.6267 5.13176 61.272C1.8811 56.856 0.255765 52.1027 0.255765 47.012C0.255765 41.86 1.1451 36.3707 2.92376 30.544C4.70243 24.656 6.97177 19.5347 9.73177 15.18C12.4918 10.764 15.5891 7.176 19.0238 4.416C22.5198 1.656 25.8931 0.275996 29.1438 0.275996C33.9891 0.275996 37.8224 1.99333 40.6438 5.428C43.4651 8.86266 44.8758 13.7693 44.8758 20.148C44.8758 24.5027 44.1398 29.4093 42.6678 34.868C41.2571 40.3267 39.3558 45.5093 36.9638 50.416ZM57.5437 36.34V35.972C57.5437 35.236 57.8811 34.6227 58.5557 34.132C59.3531 33.1507 60.9171 31.8013 63.2477 30.084C65.5784 28.3667 67.7557 26.772 69.7797 25.3C71.8651 23.7667 73.7357 21.9573 75.3917 19.872C77.0477 17.7867 77.8757 15.7627 77.8757 13.8C77.8757 13.064 77.5997 12.696 77.0477 12.696C75.0237 12.696 72.1411 13.708 68.3997 15.732C64.6584 17.6947 62.2664 18.676 61.2237 18.676C60.1811 18.676 58.5251 17.6027 56.2557 15.456C53.9864 13.248 52.8517 11.6227 52.8517 10.58C52.8517 8.86266 54.2931 7.20666 57.1757 5.612C60.0584 3.956 63.3397 2.69866 67.0197 1.84C70.7611 0.919995 74.0424 0.459994 76.8637 0.459994C80.9117 0.459994 84.4077 1.932 87.3517 4.876C90.3571 7.82 91.8597 10.9173 91.8597 14.168C91.8597 17.4187 90.4797 20.792 87.7197 24.288C85.0211 27.7227 81.6477 30.82 77.5997 33.58C86.1864 35.4813 90.4797 39.376 90.4797 45.264C90.4797 49.0053 88.3024 52.6853 83.9477 56.304C79.6544 59.8613 74.4411 62.6827 68.3077 64.768C62.1744 66.8533 56.3784 67.896 50.9197 67.896C44.2957 67.896 40.9837 66.4547 40.9837 63.572C40.9837 61.9773 46.5037 59.5547 57.5437 56.304C61.6531 55.1387 65.4251 53.544 68.8597 51.52C72.3557 49.496 74.1037 47.4107 74.1037 45.264C74.1037 44.0987 73.4904 43.2093 72.2637 42.596C71.0371 41.9213 69.6571 41.492 68.1237 41.308C63.4624 40.756 60.4264 39.928 59.0157 38.824C58.0344 38.2107 57.5437 37.3827 57.5437 36.34Z" fill="#6EE3D6"/>
</svg>
