<svg width="96" height="75" viewBox="0 0 96 75" fill="none" xmlns="http://www.w3.org/2000/svg">
<path d="M32.9006 22.9075C32.9006 16.8662 32.0421 13.8455 30.3251 13.8455C29.244 13.8455 27.8132 14.9902 26.0326 17.2796C24.252 19.5053 22.4714 22.3352 20.6908 25.7692C18.9102 29.1397 17.3839 33.1142 16.1121 37.6929C14.8402 42.2716 14.2043 46.5959 14.2043 50.6659C14.2043 56.7708 15.2218 59.8233 17.2567 59.8233C18.9737 59.8233 21.0723 57.7247 23.5524 53.5276C26.0326 49.2668 28.1947 44.1794 30.0389 38.2653C31.9467 32.2875 32.9006 27.1683 32.9006 22.9075ZM38.2424 53.3368C35.8259 58.4242 32.7416 62.7168 28.9896 66.2144C25.2377 69.6484 21.1995 71.3654 16.8752 71.3654C12.5509 71.3654 8.67169 69.1079 5.23766 64.5928C1.86724 60.0141 0.182021 55.0856 0.182021 49.8074C0.182021 44.4656 1.10412 38.774 2.94832 32.7327C4.79251 26.6277 7.14545 21.3177 10.0071 16.8026C12.8688 12.2239 16.0803 8.50374 19.6415 5.64205C23.2663 2.78037 26.7639 1.34952 30.1343 1.34952C35.1582 1.34952 39.1327 3.13013 42.058 6.69133C44.9833 10.2525 46.4459 15.34 46.4459 21.9537C46.4459 26.4688 45.6828 31.5562 44.1566 37.216C42.6939 42.8757 40.7226 48.2494 38.2424 53.3368ZM84.8588 17.375C86.4486 17.375 88.579 18.5514 91.2499 20.9044C93.9844 23.2573 95.3517 25.1969 95.3517 26.7231C95.3517 30.4115 93.0941 39.2827 88.579 53.3368C84.0639 67.3273 80.6617 74.3225 78.3723 74.3225C77.1641 74.3225 75.7968 73.4322 74.2706 71.6516C72.8079 69.8074 72.0766 68.2493 72.0766 66.9775C72.0766 65.7056 72.2356 64.3702 72.5536 62.9711C72.8715 61.5085 73.1895 60.173 73.5075 58.9648C73.889 57.6929 74.4296 55.9123 75.1291 53.623C75.8922 51.3336 76.4963 49.4894 76.9415 48.0904C72.3628 49.6802 67.8477 50.4751 63.3962 50.4751C59.0083 50.4751 55.5742 49.2668 53.0941 46.8503C50.6776 44.4338 49.4693 41.1905 49.4693 37.1206C49.4693 34.1953 51.0273 29.7438 54.1434 23.7661C57.3231 17.7883 60.8207 12.4147 64.6362 7.64523C68.4518 2.87575 71.1545 0.491017 72.7444 0.491017C74.3978 0.491017 76.083 1.28593 77.8 2.87576C79.5806 4.46558 80.4709 5.96002 80.4709 7.35906C80.4709 8.69451 77.482 13.5912 71.5043 22.049C65.5901 30.5069 62.6331 35.499 62.6331 37.0252C62.6331 37.6611 62.7603 38.0745 63.0146 38.2653C63.269 38.456 63.8413 38.5514 64.7316 38.5514C66.8938 38.5514 70.0099 37.6929 74.0798 35.9759C78.1498 34.2589 80.3437 33.3686 80.6617 33.305C81.4884 28.7899 81.9017 24.4338 81.9017 20.2366C81.9017 18.3288 82.8874 17.375 84.8588 17.375Z" fill="#6EE3D6"/>
</svg>
