<svg width="256" height="57" viewBox="0 0 256 57" fill="none" xmlns="http://www.w3.org/2000/svg">
<g clip-path="url(#clip0_2256_953)">
<g clip-path="url(#clip1_2256_953)">
<path d="M218.238 28.2965C218.484 27.3044 217.885 26.2981 216.896 26.0453C215.456 25.6816 214.014 25.3224 212.57 24.9713C211.58 24.7302 210.583 25.3436 210.346 26.3374C210.108 27.3312 210.721 28.3339 211.711 28.5751C213.143 28.9217 214.572 29.2764 216 29.6393C216.309 29.7173 216.616 29.7118 216.902 29.639C217.538 29.4769 218.066 28.9791 218.234 28.2974L218.238 28.2965Z" fill="black"/>
<path d="M14.7108 27.0354C13.7347 27.3262 13.1797 28.3588 13.4752 29.3392C13.7607 30.2953 14.7435 30.8519 15.6974 30.6088C15.7225 30.6024 15.7475 30.5961 15.7725 30.5897C17.1656 30.1735 18.5864 29.7617 19.9948 29.3607C20.9746 29.0843 21.543 28.0597 21.2654 27.0748C20.9878 26.0899 19.9728 25.5262 18.9867 25.7928C17.5595 26.1947 16.1217 26.6147 14.7108 27.0354Z" fill="black"/>
<path d="M133.248 17.2595C134.715 17.3293 136.181 17.4071 137.649 17.4921C137.842 17.504 138.031 17.4828 138.209 17.4372C138.967 17.2442 139.546 16.5764 139.594 15.7495C139.65 14.7293 138.871 13.853 137.856 13.7943C136.376 13.7085 134.895 13.6307 133.416 13.5601C132.4 13.5132 131.536 14.3032 131.492 15.3243C131.447 16.3453 132.236 17.2153 133.253 17.2622L133.248 17.2595Z" fill="black"/>
<path d="M6.21859 29.7122C4.81146 30.1778 3.39369 30.6615 2.00277 31.146C1.04125 31.479 0.533853 32.5339 0.871293 33.4997C1.18877 34.4171 2.15064 34.9217 3.06889 34.6877C3.11891 34.6749 3.17251 34.6613 3.2207 34.6413C4.59376 34.1614 5.99457 33.6859 7.38384 33.2247C8.34902 32.9061 8.87345 31.8584 8.55296 30.8844C8.23339 29.914 7.18551 29.3854 6.22033 29.7041L6.21859 29.7122Z" fill="black"/>
<path d="M126.328 15.1375C126.353 14.1139 125.543 13.2646 124.528 13.2401C123.047 13.2046 121.566 13.1727 120.084 13.1524C119.065 13.1369 118.231 13.9574 118.217 14.9784C118.204 16.0029 119.023 16.8422 120.04 16.8586C121.506 16.8789 122.974 16.9064 124.445 16.9447C124.618 16.9504 124.787 16.9301 124.945 16.89C125.727 16.6906 126.31 15.9913 126.329 15.1411L126.328 15.1375Z" fill="black"/>
<path d="M177.828 21.6669C178.524 21.4893 179.081 20.9114 179.192 20.1526C179.345 19.142 178.651 18.1944 177.645 18.0378C176.179 17.8108 174.712 17.5919 173.242 17.3775C172.23 17.2299 171.298 17.9339 171.157 18.9489C171.016 19.9604 171.716 20.9026 172.727 21.0466C174.184 21.2566 175.637 21.4755 177.091 21.7017C177.344 21.7404 177.592 21.727 177.824 21.6678L177.828 21.6669Z" fill="black"/>
<path d="M151.159 14.7848C149.684 14.6521 148.205 14.524 146.729 14.4067C145.712 14.3256 144.829 15.0861 144.75 16.1045C144.67 17.123 145.431 18.0155 146.445 18.0975C147.909 18.214 149.375 18.3377 150.836 18.4739C151.05 18.4921 151.259 18.4734 151.455 18.4233C152.191 18.2358 152.763 17.5967 152.836 16.794C152.927 15.7764 152.175 14.874 151.159 14.7812L151.159 14.7848Z" fill="black"/>
<path d="M166.038 18.2636C166.16 17.2495 165.437 16.3245 164.427 16.1994C162.955 16.02 161.483 15.8442 160.007 15.6811C158.997 15.5676 158.084 16.3012 157.973 17.3162C157.863 18.3311 158.595 19.2498 159.606 19.3633C161.067 19.5265 162.526 19.6978 163.987 19.8763C164.219 19.9052 164.45 19.8883 164.665 19.8336C165.379 19.6515 165.944 19.0449 166.038 18.2636Z" fill="black"/>
<path d="M197.364 23.462C197.158 24.4629 197.801 25.4466 198.798 25.6554C200.241 25.957 201.678 26.2677 203.117 26.582C203.407 26.6457 203.694 26.6376 203.966 26.5684C204.619 26.4018 205.159 25.8778 205.31 25.1701C205.527 24.1701 204.895 23.1837 203.899 22.9632C202.448 22.6445 200.999 22.3329 199.544 22.0268C198.547 21.818 197.569 22.4611 197.364 23.462Z" fill="black"/>
<path d="M54.2995 21.6973C55.7374 21.4571 57.196 21.2231 58.6385 21.0009C58.6975 20.9935 58.7583 20.978 58.8154 20.9635C59.723 20.7322 60.3243 19.8369 60.1775 18.8875C60.0223 17.8753 59.0772 17.1828 58.07 17.3362C56.6131 17.5621 55.1358 17.7971 53.6836 18.0409C52.6755 18.206 52.002 19.1617 52.1724 20.174C52.3419 21.1826 53.2923 21.866 54.2995 21.6973Z" fill="black"/>
<path d="M71.2834 15.5598C69.8155 15.7273 68.3325 15.9102 66.8737 16.0983C65.8645 16.2293 65.1533 17.1563 65.2826 18.1714C65.4154 19.1855 66.34 19.9023 67.3502 19.7749C68.7947 19.5904 70.2598 19.4121 71.7161 19.2438C71.801 19.2336 71.8815 19.2208 71.9601 19.2007C72.839 18.9767 73.4406 18.1273 73.3324 17.1949C73.2138 16.1771 72.2981 15.4504 71.2852 15.567L71.2834 15.5598Z" fill="black"/>
<path d="M190.93 23.9115C191.606 23.7395 192.153 23.1868 192.287 22.4566C192.472 21.4495 191.81 20.4821 190.807 20.294C189.349 20.0193 187.888 19.7527 186.426 19.4943C185.422 19.3179 184.468 19.9932 184.294 20.9976C184.121 22.0056 184.795 22.9658 185.796 23.1431C187.246 23.4007 188.694 23.6628 190.137 23.9339C190.408 23.9834 190.676 23.9726 190.926 23.9089L190.93 23.9115Z" fill="black"/>
<path d="M97.8593 13.4692C96.3917 13.5334 94.8991 13.6039 93.4209 13.6861C92.4041 13.7425 91.6255 14.6141 91.6841 15.6357C91.7428 16.6572 92.6123 17.4416 93.6291 17.3852C95.093 17.3067 96.5695 17.2326 98.0228 17.172C98.1507 17.1662 98.2794 17.1487 98.4009 17.1178C99.2298 16.9065 99.8247 16.1353 99.7838 15.2431C99.7368 14.2224 98.8761 13.4281 97.8593 13.4692Z" fill="black"/>
<path d="M41.3376 24.1315C42.7609 23.8338 44.2084 23.5415 45.6443 23.2635C45.6801 23.2544 45.7122 23.2462 45.748 23.2371C46.6877 22.9977 47.2887 22.0566 47.0989 21.0876C46.9034 20.0817 45.9336 19.4262 44.9328 19.62C43.479 19.9025 42.0172 20.1985 40.5787 20.4963C39.5833 20.6964 38.9449 21.6852 39.1546 22.6874C39.3644 23.6896 40.3422 24.3316 41.3393 24.1234L41.3376 24.1315Z" fill="black"/>
<path d="M111.19 13.1239C109.716 13.136 108.223 13.1571 106.746 13.1853C105.728 13.2076 104.92 14.0523 104.944 15.0749C104.965 16.0984 105.812 16.9116 106.83 16.8893C108.291 16.8611 109.773 16.8391 111.232 16.8271C111.384 16.8266 111.53 16.8046 111.67 16.7691C112.473 16.5642 113.062 15.829 113.054 14.9591C113.044 13.9364 112.207 13.1133 111.19 13.1239Z" fill="black"/>
<path d="M28.4872 27.0884C29.8985 26.7288 31.3359 26.3817 32.7527 26.0436C32.7634 26.0408 32.7741 26.0381 32.7813 26.0363C33.7531 25.7886 34.3494 24.799 34.1174 23.814C33.8791 22.819 32.8844 22.2005 31.8946 22.4374C30.459 22.7764 29.0056 23.1353 27.5791 23.495L27.5755 23.4959C26.5894 23.7472 25.9967 24.7512 26.2458 25.7434C26.4984 26.7347 27.5011 27.3397 28.4872 27.0884Z" fill="black"/>
<path d="M224.54 31.9045C225.961 32.2997 227.379 32.6994 228.796 33.1072C229.12 33.2005 229.451 33.2003 229.755 33.1229C230.37 32.9663 230.888 32.4937 231.075 31.838C231.353 30.853 230.784 29.8277 229.806 29.5452C228.38 29.132 226.949 28.7279 225.513 28.3328C224.53 28.0592 223.514 28.6395 223.248 29.6253C222.978 30.612 223.557 31.631 224.54 31.9045Z" fill="black"/>
<path d="M84.5554 14.274C83.0934 14.3903 81.6029 14.5138 80.1268 14.649C79.112 14.7431 78.3667 15.6407 78.4593 16.6612C78.552 17.6818 79.4508 18.4319 80.4665 18.3414C81.9248 18.2107 83.3992 18.0836 84.8504 17.9701C84.9586 17.9616 85.0604 17.9433 85.1605 17.9178C86.0144 17.7002 86.6109 16.8904 86.5385 15.9794C86.4575 14.9597 85.5666 14.1961 84.5518 14.2749L84.5554 14.274Z" fill="black"/>
<path d="M255.292 39.769C248.311 34.1468 240.105 25.7886 235.749 18.3846L236.153 33.0071C236.102 33.1043 236.056 33.2078 236.023 33.3194C235.993 33.4228 235.976 33.5226 235.961 33.626L226.94 45.1272C234.822 41.8183 246.358 40.0682 255.291 39.7655L255.292 39.769Z" fill="black"/>
</g>
</g>
<defs>
<clipPath id="clip0_2256_953">
<rect width="255" height="57" fill="white" transform="translate(0.0976562)"/>
</clipPath>
<clipPath id="clip1_2256_953">
<rect width="245" height="72" fill="white" transform="translate(0.0976562 30.498) rotate(-14.2962)"/>
</clipPath>
</defs>
</svg>
