<svg width="256" height="57" viewBox="0 0 256 57" fill="none" xmlns="http://www.w3.org/2000/svg">
<g clip-path="url(#clip0_2353_940)">
<g clip-path="url(#clip1_2353_940)">
<path d="M216.035 21.8505C216.275 20.8817 215.69 19.8989 214.724 19.652C213.318 19.2968 211.909 18.9461 210.499 18.6032C209.532 18.3677 208.559 18.9668 208.327 19.9373C208.095 20.9079 208.694 21.8871 209.661 22.1226C211.059 22.4611 212.455 22.8075 213.849 23.1618C214.151 23.2381 214.451 23.2327 214.73 23.1616C215.351 23.0033 215.866 22.5171 216.031 21.8514L216.035 21.8505Z" fill="white"/>
<path d="M17.2674 20.6185C16.3142 20.9024 15.7723 21.9109 16.0608 22.8683C16.3397 23.802 17.2994 24.3456 18.231 24.1082C18.2555 24.1019 18.2799 24.0957 18.3043 24.0895C19.6648 23.683 21.0524 23.2809 22.4278 22.8893C23.3846 22.6194 23.9397 21.6188 23.6686 20.6569C23.3975 19.6951 22.4062 19.1446 21.4433 19.4049C20.0495 19.7975 18.6454 20.2076 17.2674 20.6185Z" fill="white"/>
<path d="M133.033 11.0716C134.467 11.1397 135.898 11.2157 137.331 11.2987C137.52 11.3104 137.704 11.2896 137.879 11.2451C138.618 11.0566 139.184 10.4044 139.231 9.59687C139.286 8.60059 138.525 7.7448 137.533 7.68753C136.089 7.60367 134.642 7.52772 133.198 7.45878C132.205 7.41292 131.361 8.1845 131.318 9.18161C131.275 10.1787 132.045 11.0283 133.038 11.0742L133.033 11.0716Z" fill="white"/>
<path d="M8.97801 23.2317C7.60382 23.6864 6.21925 24.1588 4.8609 24.6319C3.9219 24.9571 3.42638 25.9873 3.75591 26.9306C4.06596 27.8265 5.0053 28.3192 5.90206 28.0907C5.95091 28.0782 6.00325 28.0649 6.05031 28.0454C7.39122 27.5767 8.75923 27.1123 10.116 26.662C11.0586 26.3509 11.5707 25.3276 11.2577 24.3764C10.9456 23.4288 9.92229 22.9126 8.97971 23.2238L8.97801 23.2317Z" fill="white"/>
<path d="M126.273 8.99952C126.297 7.99984 125.506 7.17048 124.516 7.14656C123.069 7.11185 121.623 7.08066 120.176 7.06087C119.18 7.04574 118.366 7.84706 118.352 8.84408C118.34 9.8446 119.14 10.6643 120.132 10.6803C121.564 10.7001 122.998 10.727 124.434 10.7644C124.603 10.7699 124.769 10.7501 124.922 10.711C125.686 10.5162 126.256 9.83332 126.274 9.00303L126.273 8.99952Z" fill="white"/>
<path d="M176.568 15.3748C177.248 15.2014 177.792 14.6371 177.9 13.896C178.05 12.9091 177.372 11.9837 176.389 11.8307C174.958 11.609 173.525 11.3953 172.089 11.1859C171.101 11.0417 170.191 11.7293 170.054 12.7205C169.915 13.7083 170.599 14.6284 171.587 14.7691C173.01 14.9741 174.428 15.188 175.848 15.4088C176.096 15.4466 176.338 15.4335 176.564 15.3757L176.568 15.3748Z" fill="white"/>
<path d="M150.523 8.65492C149.082 8.52542 147.638 8.40031 146.197 8.28572C145.203 8.20652 144.341 8.9492 144.263 9.9438C144.186 10.9384 144.929 11.81 145.919 11.8901C147.349 12.0039 148.78 12.1246 150.208 12.2577C150.417 12.2754 150.62 12.2572 150.812 12.2083C151.531 12.0251 152.089 11.4011 152.16 10.6171C152.249 9.62336 151.515 8.74203 150.522 8.65141L150.523 8.65492Z" fill="white"/>
<path d="M165.054 12.0528C165.173 11.0624 164.468 10.1591 163.481 10.0368C162.043 9.86168 160.606 9.69004 159.165 9.53069C158.178 9.41987 157.286 10.1363 157.179 11.1275C157.071 12.1187 157.786 13.0159 158.773 13.1267C160.2 13.2861 161.625 13.4534 163.051 13.6277C163.278 13.6559 163.504 13.6394 163.713 13.586C164.411 13.4082 164.963 12.8157 165.054 12.0528Z" fill="white"/>
<path d="M195.647 17.1289C195.446 18.1064 196.074 19.067 197.047 19.2709C198.456 19.5655 199.86 19.8689 201.265 20.1758C201.548 20.2381 201.829 20.2301 202.094 20.1626C202.732 19.9999 203.26 19.4882 203.407 18.797C203.619 17.8204 203.002 16.8571 202.029 16.6418C200.612 16.3305 199.197 16.0263 197.775 15.7274C196.802 15.5235 195.847 16.1515 195.647 17.1289Z" fill="white"/>
<path d="M55.9311 15.4043C57.3354 15.1698 58.7598 14.9413 60.1686 14.7242C60.2262 14.717 60.2855 14.7019 60.3413 14.6877C61.2276 14.4618 61.8149 13.5875 61.6715 12.6604C61.5199 11.6718 60.597 10.9956 59.6133 11.1454C58.1906 11.366 56.7478 11.5954 55.3296 11.8336C54.3451 11.9948 53.6874 12.9281 53.8538 13.9166C54.0194 14.9017 54.9475 15.5691 55.9311 15.4043Z" fill="white"/>
<path d="M72.5199 9.41219C71.0864 9.57579 69.6381 9.75435 68.2134 9.9381C67.2278 10.066 66.5333 10.9713 66.6596 11.9626C66.7893 12.953 67.6923 13.653 68.6787 13.5286C70.0895 13.3484 71.5203 13.1743 72.9424 13.0099C73.0254 13 73.1039 12.9874 73.1807 12.9679C74.0391 12.7491 74.6266 11.9196 74.5209 11.009C74.4051 10.015 73.5108 9.30536 72.5217 9.41921L72.5199 9.41219Z" fill="white"/>
<path d="M189.366 17.5675C190.026 17.3994 190.561 16.8597 190.691 16.1466C190.872 15.1631 190.226 14.2183 189.246 14.0346C187.822 13.7664 186.395 13.5061 184.967 13.2537C183.987 13.0814 183.055 13.7409 182.885 14.7218C182.716 15.7062 183.375 16.6439 184.352 16.8171C185.769 17.0686 187.183 17.3246 188.592 17.5894C188.857 17.6376 189.118 17.6271 189.362 17.5649L189.366 17.5675Z" fill="white"/>
<path d="M98.4748 7.36904C97.0415 7.4317 95.5839 7.50059 94.1403 7.58085C93.1473 7.63591 92.3869 8.48708 92.4442 9.48474C92.5015 10.4824 93.3507 11.2484 94.3437 11.1933C95.7733 11.1166 97.2152 11.0443 98.6345 10.9852C98.7594 10.9795 98.8851 10.9624 99.0037 10.9322C99.8133 10.7259 100.394 9.97271 100.354 9.10137C100.308 8.10455 99.4678 7.32889 98.4748 7.36904Z" fill="white"/>
<path d="M43.2762 17.7821C44.6662 17.4914 46.0798 17.2058 47.4821 16.9344C47.517 16.9255 47.5484 16.9175 47.5833 16.9086C48.501 16.6748 49.088 15.7557 48.9026 14.8094C48.7117 13.8271 47.7645 13.1869 46.7872 13.3762C45.3674 13.6521 43.9399 13.9412 42.535 14.2319C41.563 14.4274 40.9395 15.393 41.1443 16.3718C41.3492 17.3505 42.3041 17.9775 43.2779 17.7742L43.2762 17.7821Z" fill="white"/>
<path d="M111.491 7.03381C110.052 7.04559 108.593 7.06622 107.151 7.09381C106.157 7.11553 105.368 7.94047 105.392 8.93912C105.413 9.93865 106.239 10.7328 107.233 10.7111C108.661 10.6835 110.108 10.6621 111.532 10.6503C111.68 10.6498 111.824 10.6283 111.96 10.5936C112.745 10.3936 113.32 9.67552 113.311 8.82602C113.302 7.82733 112.484 7.0235 111.491 7.03381Z" fill="white"/>
<path d="M30.7287 20.6693C32.107 20.3181 33.5107 19.979 34.8943 19.6489C34.9048 19.6462 34.9152 19.6435 34.9222 19.6418C35.8713 19.3999 36.4537 18.4335 36.2271 17.4715C35.9944 16.4999 35.023 15.8958 34.0563 16.1271C32.6544 16.4583 31.235 16.8087 29.8419 17.16L29.8384 17.1609C28.8754 17.4063 28.2966 18.3868 28.5398 19.3557C28.7864 20.3238 29.7657 20.9147 30.7287 20.6693Z" fill="white"/>
<path d="M222.186 25.3743C223.574 25.7602 224.959 26.1506 226.343 26.5488C226.659 26.6399 226.983 26.6397 227.279 26.5641C227.879 26.4112 228.386 25.9497 228.568 25.3093C228.84 24.3474 228.284 23.3461 227.329 23.0702C225.937 22.6667 224.539 22.272 223.137 21.8861C222.177 21.619 221.184 22.1857 220.924 23.1484C220.661 24.1121 221.226 25.1072 222.186 25.3743Z" fill="white"/>
<path d="M85.4812 8.15593C84.0535 8.26948 82.5979 8.39014 81.1563 8.52217C80.1653 8.61409 79.4374 9.4906 79.5279 10.4873C79.6183 11.4839 80.4962 12.2165 81.4881 12.1281C82.9122 12.0005 84.3521 11.8764 85.7693 11.7655C85.8749 11.7572 85.9744 11.7394 86.0721 11.7145C86.9061 11.5019 87.4886 10.711 87.4179 9.82138C87.3388 8.82554 86.4688 8.07982 85.4777 8.15682L85.4812 8.15593Z" fill="white"/>
<path d="M252.217 33.0551C245.4 27.5645 237.386 19.402 233.132 12.1714L233.527 26.4515C233.477 26.5464 233.432 26.6475 233.4 26.7564C233.37 26.8574 233.354 26.9549 233.339 27.0559L224.529 38.2878C232.227 35.0564 243.492 33.3473 252.216 33.0516L252.217 33.0551Z" fill="white"/>
</g>
</g>
<defs>
<clipPath id="clip0_2353_940">
<rect width="255" height="57" fill="white" transform="translate(0.0976562)"/>
</clipPath>
<clipPath id="clip1_2353_940">
<rect width="239.263" height="70.3142" fill="white" transform="translate(3 24) rotate(-14.2962)"/>
</clipPath>
</defs>
</svg>
