<svg width="125" height="54" viewBox="0 0 125 54" fill="none" xmlns="http://www.w3.org/2000/svg">
<g clip-path="url(#clip0_168_2391)">
<path d="M121.67 31.8495C119.601 29.0336 114.524 27.9073 107.002 26.2178C105.497 25.8424 104.181 25.6547 102.488 25.2792C101.172 24.9038 99.2914 24.3406 97.4109 23.7774C89.8888 20.7739 55.0992 2.75262 51.9023 0.875402C47.7652 -1.56498 45.3205 1.62629 43.44 4.06667C43.2519 4.44211 42.8758 4.62983 42.6878 5.00528C41.9965 5.93853 41.5631 7.03678 41.4311 8.18994C41.2991 9.34311 41.4731 10.5107 41.9356 11.5755C39.1118 13.6632 35.8593 15.0997 32.4123 15.7814C28.9654 16.4631 25.4099 16.373 22.0021 15.5177C19.3266 14.7782 16.8309 13.5006 14.6681 11.7633C12.7875 10.2615 10.907 8.94743 8.27429 9.5106C4.13714 10.4492 2.82078 25.0915 2.63273 34.853L2.25662 35.4162C0.376104 37.6688 0.188052 42.925 0 47.6181V48.7444L1.12831 48.9321C1.31636 48.9321 13.9158 52.1234 39.867 52.6866C45.3205 52.8743 50.2099 53.062 54.9112 53.4375C60.3647 53.8129 65.4421 54.0006 71.0836 54.0006C81.9906 54.0006 96.8468 53.062 123.926 45.5531L124.866 45.3654V44.4268C125.619 34.853 122.986 32.4126 121.67 31.8495ZM44.9444 6.69477C45.1475 6.34666 45.401 6.03039 45.6966 5.75616C47.9532 2.75262 48.7055 2.18945 50.3979 3.31578C51.663 4.09768 52.9828 4.78777 54.347 5.38072C52.7258 5.17389 51.0785 5.35546 49.5416 5.9104C48.0046 6.46535 46.6221 7.37772 45.5086 8.57199L44.3803 9.69832C44.2438 9.18738 44.2236 8.65243 44.3212 8.13269C44.4188 7.61296 44.6318 7.12164 44.9444 6.69477ZM6.95792 17.3949C9.7787 19.8353 15.7964 23.402 28.5839 23.402V20.5862C13.7278 20.5862 8.83844 15.7054 7.71013 14.2036C8.27429 13.0773 8.65039 12.3264 9.02649 12.1387C10.3429 11.7633 11.2831 12.5141 13.1636 13.8282C15.6044 15.7636 18.4224 17.1701 21.4379 17.9581C26.1156 19.1243 31.02 19.0261 35.647 17.6734C40.2741 16.3207 44.4568 13.7624 47.7652 10.2615C48.698 9.30418 49.8671 8.60925 51.1547 8.24672C52.4422 7.8842 53.8028 7.86689 55.0992 8.19654C54.4337 8.32265 53.8303 8.66927 53.3866 9.18029C52.9429 9.6913 52.685 10.3368 52.6545 11.0124C52.6545 11.4068 52.7324 11.7974 52.8836 12.1618C53.0348 12.5262 53.2564 12.8573 53.5358 13.1362C53.8152 13.4151 54.1469 13.6363 54.5119 13.7873C54.877 13.9382 55.2682 14.0159 55.6634 14.0159C56.0585 14.0159 56.4498 13.9382 56.8148 13.7873C57.1799 13.6363 57.5115 13.4151 57.7909 13.1362C58.0703 12.8573 58.292 12.5262 58.4432 12.1618C58.5944 11.7974 58.6722 11.4068 58.6722 11.0124C58.6595 10.4902 58.531 9.97732 58.2961 9.5106L58.4842 9.13515C58.8603 9.32288 59.0483 9.32287 59.4244 9.5106C60.1766 9.88604 61.3049 10.4492 62.6213 11.0124L62.4332 11.2001H62.2452C61.6501 11.2001 61.0684 11.3762 60.5736 11.7063C60.0788 12.0363 59.6931 12.5054 59.4654 13.0542C59.2377 13.6031 59.1781 14.207 59.2942 14.7896C59.4103 15.3722 59.6968 15.9074 60.1176 16.3275C60.5384 16.7475 61.0745 17.0336 61.6582 17.1495C62.2419 17.2654 62.8468 17.2059 63.3966 16.9786C63.9464 16.7512 64.4163 16.3662 64.7469 15.8723C65.0776 15.3784 65.254 14.7977 65.254 14.2036C65.2413 13.6815 65.1128 13.1686 64.8779 12.7019L65.066 12.3264C66.3823 12.8896 67.6987 13.6405 69.2031 14.2036L69.0151 14.5791H68.827C68.2319 14.5791 67.6502 14.7552 67.1554 15.0853C66.6606 15.4153 66.2749 15.8844 66.0472 16.4332C65.8195 16.982 65.7599 17.586 65.876 18.1686C65.9921 18.7512 66.2786 19.2864 66.6994 19.7065C67.1202 20.1265 67.6564 20.4126 68.24 20.5285C68.8237 20.6444 69.4286 20.5849 69.9784 20.3575C70.5282 20.1302 70.9981 19.7452 71.3288 19.2513C71.6594 18.7574 71.8358 18.1767 71.8358 17.5826C71.8231 17.0605 71.6947 16.5476 71.4597 16.0809L71.8358 15.5177C73.1522 16.0809 74.4686 16.8317 75.973 17.3949L75.5969 17.9581H75.4088C74.8137 17.9581 74.232 18.1342 73.7372 18.4643C73.2424 18.7943 72.8568 19.2634 72.629 19.8122C72.4013 20.361 72.3417 20.9649 72.4578 21.5476C72.5739 22.1302 72.8605 22.6654 73.2813 23.0854C73.702 23.5055 74.2382 23.7916 74.8218 23.9074C75.4055 24.0233 76.0105 23.9639 76.5603 23.7365C77.11 23.5092 77.58 23.1242 77.9106 22.6303C78.2412 22.1364 78.4177 21.5557 78.4177 20.9616C78.4049 20.4394 78.2765 19.9266 78.0416 19.4598L78.6057 18.5212C79.9221 19.0844 81.4265 19.8353 82.7429 20.3984L82.1787 21.3371H81.9906C81.3956 21.3371 80.8138 21.5132 80.319 21.8432C79.8242 22.1733 79.4386 22.6424 79.2108 23.1912C78.9831 23.74 78.9235 24.3439 79.0396 24.9266C79.1557 25.5092 79.4423 26.0444 79.8631 26.4644C80.2839 26.8845 80.82 27.1705 81.4037 27.2864C81.9873 27.4023 82.5923 27.3428 83.1421 27.1155C83.6919 26.8882 84.1618 26.5032 84.4924 26.0093C84.823 25.5154 84.9995 24.9346 84.9995 24.3406C84.9867 23.8184 84.8583 23.3056 84.6234 22.8388L85.3756 21.5248C86.88 22.0879 88.1964 22.6511 89.5127 23.2143L88.9486 23.9652H88.7605C88.1654 23.9652 87.5837 24.1413 87.0889 24.4713C86.5941 24.8014 86.2085 25.2705 85.9807 25.8193C85.753 26.3681 85.6934 26.972 85.8095 27.5547C85.9256 28.1373 86.2122 28.6725 86.6329 29.0925C87.0537 29.5126 87.5899 29.7986 88.1735 29.9145C88.7572 30.0304 89.3622 29.971 89.9119 29.7436C90.4617 29.5163 90.9316 29.1313 91.2623 28.6374C91.5929 28.1435 91.7693 27.5628 91.7693 26.9687C91.7335 26.4499 91.6062 25.9415 91.3932 25.4669L91.9574 24.5283L96.4706 26.2178C98.1961 26.8694 99.9535 27.4333 101.736 27.9073C103.22 28.3099 104.728 28.6233 106.249 28.8459C110.26 29.4917 114.175 30.6265 117.909 32.2249C94.026 38.7952 81.2384 39.7338 71.6478 39.7338C66.1943 39.7338 61.3049 39.3583 56.0395 38.9829C51.1501 38.6074 46.2608 38.232 40.4312 38.232C20.8738 37.8566 9.4026 35.9793 5.26545 35.0407C5.32518 29.1214 5.8914 23.218 6.95792 17.3949ZM3.94909 37.6688C7.33403 38.4197 18.9932 40.6724 40.4312 41.0478C46.0727 41.2355 51.1501 41.4233 55.8514 41.7987C61.1169 42.1742 66.1943 42.5496 71.6478 42.5496C85.7517 42.5496 100.42 40.1092 120.541 34.4776C121.109 35.1882 121.496 36.0255 121.67 36.918C87.8203 46.1163 72.9642 44.99 55.8514 43.8636C50.774 43.4882 45.6966 43.1128 39.867 43.1128C27.574 43.115 15.3041 42.0472 3.19688 39.9215C3.57299 38.9829 3.76104 38.232 3.94909 37.6688ZM122.234 42.7373C95.9065 49.8707 81.6145 50.8093 71.0836 50.8093C65.6301 50.8093 60.5527 50.4339 55.0992 50.2462C50.3979 49.8707 45.3205 49.683 39.867 49.4953C18.4291 49.1199 6.39377 46.8672 2.82078 46.1163C2.79894 44.9245 2.86178 43.7326 3.00883 42.5496C15.1817 44.6573 27.5124 45.7249 39.867 45.7409C45.6966 45.9286 50.774 46.1163 55.8514 46.4918C61.493 46.8672 66.7584 47.2426 72.7761 47.2426C84.9995 47.2426 99.2914 45.7409 122.234 39.5461C122.328 40.6077 122.328 41.6756 122.234 42.7373Z" fill="#4840BB"/>
<path d="M56.9797 37.856C57.5748 37.856 58.1565 37.6798 58.6513 37.3498C59.1461 37.0197 59.5318 36.5507 59.7595 36.0018C59.9873 35.453 60.0468 34.8491 59.9307 34.2665C59.8147 33.6838 59.5281 33.1486 59.1073 32.7286C58.6865 32.3085 58.1504 32.0225 57.5667 31.9066C56.9831 31.7907 56.3781 31.8502 55.8283 32.0775C55.2785 32.3048 54.8086 32.6898 54.478 33.1837C54.1474 33.6777 53.9709 34.2584 53.9709 34.8524C53.9709 35.649 54.2879 36.413 54.8522 36.9762C55.4164 37.5395 56.1817 37.856 56.9797 37.856Z" fill="#4840BB"/>
<path d="M66.5704 38.4192C67.1655 38.4192 67.7472 38.243 68.242 37.913C68.7368 37.583 69.1225 37.1139 69.3502 36.5651C69.5779 36.0162 69.6375 35.4123 69.5214 34.8297C69.4053 34.2471 69.1187 33.7119 68.698 33.2918C68.2772 32.8718 67.741 32.5857 67.1574 32.4698C66.5737 32.3539 65.9688 32.4134 65.419 32.6407C64.8692 32.8681 64.3992 33.253 64.0686 33.747C63.738 34.2409 63.5616 34.8216 63.5616 35.4157C63.5616 35.8101 63.6394 36.2007 63.7906 36.5651C63.9418 36.9295 64.1634 37.2606 64.4428 37.5395C64.7222 37.8184 65.0539 38.0396 65.419 38.1906C65.784 38.3415 66.1753 38.4192 66.5704 38.4192Z" fill="#4840BB"/>
</g>
<defs>
<clipPath id="clip0_168_2391">
<rect width="125" height="54" fill="white"/>
</clipPath>
</defs>
</svg>
