<svg width="89" height="74" viewBox="0 0 89 74" fill="none" xmlns="http://www.w3.org/2000/svg">
<g clip-path="url(#clip0_168_2774)">
<path d="M84.0383 12.7152C83.8812 12.7152 82.77 12.7152 81.88 12.7679V10.6379C81.9431 10.0842 81.8923 9.52343 81.7308 8.99033C81.5693 8.45723 81.3005 7.96324 80.9411 7.53904C80.5817 7.11484 80.1395 6.76949 79.6418 6.52447C79.1441 6.27945 78.6016 6.13997 78.0481 6.11472C77.8174 6.11488 77.5874 6.14109 77.3624 6.19285C77.1767 6.23022 59.1318 9.94152 44.9678 21.337C42.259 19.2435 39.428 17.315 36.49 15.562V13.3046C36.49 9.33344 36.0104 5.27734 29.9594 3.15587L22.228 0.43992C21.4729 0.156842 20.6746 0.00798483 19.8688 0C19.0629 0.0405449 18.2729 0.241236 17.5446 0.590488C16.8162 0.93974 16.1638 1.43063 15.6251 2.03483C15.0864 2.63903 14.672 3.34457 14.4059 4.11071C14.1397 4.87686 14.0271 5.68843 14.0745 6.49859V6.52916C13.1693 6.30496 12.6475 6.19795 12.6171 6.18946C12.2449 6.13853 11.8696 6.11356 11.494 6.11472C10.3198 6.13705 9.20175 6.62445 8.38277 7.47105C7.56378 8.31765 7.11 9.45507 7.12 10.6362V12.7679C6.23 12.7186 5.12046 12.7135 4.96171 12.7135C3.64649 12.7149 2.38549 13.2408 1.45533 14.176C0.525166 15.1112 0.00178813 16.3793 0 17.7021L0 56.9722C0 59.4028 2.67 61.4309 4.45 61.8708V66.1596C4.5039 67.5261 5.07424 68.8204 6.04464 69.7784C7.01503 70.7364 8.31233 71.2858 9.67178 71.3146H37.684C38.2215 72.0374 38.8953 72.6466 39.667 73.1073C40.4386 73.5681 41.293 73.8714 42.1813 74H47.9114C48.7994 73.8714 49.6535 73.568 50.4249 73.1073C51.1963 72.6465 51.8698 72.0373 52.407 71.3146H81.4933C82.8124 71.2702 84.0606 70.7037 84.9665 69.7382C85.8723 68.7728 86.3624 67.4866 86.33 66.1596V61.5345C87.1798 61.1325 87.8893 60.4821 88.3657 59.6681C88.842 58.8542 89.0631 57.9146 89 56.9722V17.7021C88.9982 16.3795 88.4748 15.1116 87.5446 14.1766C86.6144 13.2417 85.3534 12.7161 84.0383 12.7152ZM19.8755 3.50068C20.2866 3.50991 20.6929 3.59094 21.0763 3.74017L28.7722 6.45782C32.4099 7.73172 32.93 9.51518 32.93 13.2995V36.8582L28.5746 31.5452C28.4182 31.3491 28.22 31.191 27.9946 31.0825C27.7692 30.974 27.5224 30.9179 27.2725 30.9184C26.9232 30.9171 26.5776 30.9912 26.2592 31.1358L21.3516 33.7651V10.716C21.3516 9.18737 21.5339 5.63573 17.8524 5.63573C17.75 5.63601 17.6482 5.65088 17.5501 5.6799C17.6274 5.10225 17.9014 4.56941 18.3254 4.17208C18.7494 3.77475 19.2972 3.53749 19.8755 3.50068ZM5.5207 58.1102C5.37496 58.109 5.23096 58.0783 5.09724 58.02C4.96353 57.9616 4.84283 57.8769 4.74233 57.7707C4.64182 57.6646 4.56355 57.5392 4.51217 57.402C4.4608 57.2648 4.43736 57.1187 4.44324 56.9722V17.7021C4.44324 17.0771 4.64084 16.5658 5.26569 16.5658C5.30622 16.5658 6.22324 16.5658 7.11325 16.632V49.908C7.16007 51.1787 7.61729 52.3995 8.41568 53.3854C9.21406 54.3714 10.3101 55.0688 11.5379 55.3722C17.3077 56.6085 22.9222 58.4885 28.2773 60.9773C20.8207 59.1902 13.192 58.2288 5.52746 58.1102H5.5207ZM9.66503 67.7341C9.26841 67.6564 8.9018 67.4673 8.60768 67.1886C8.31357 66.9099 8.10399 66.5531 8.00324 66.1596V62.0389C17.6366 62.3095 27.1529 64.2357 36.1404 67.7341H9.66503ZM43.61 24.9905V65.2135C34.3749 58.6225 23.9048 53.9869 12.8349 51.5879C12.4897 51.4542 12.1885 51.2261 11.9655 50.9292C11.7426 50.6323 11.6067 50.2785 11.5734 49.908V10.6362C11.5734 10.2065 11.5312 9.99247 11.6274 9.97039C13.7179 10.429 15.7791 11.0132 17.8 11.7199V36.7291C17.8441 37.0494 17.9651 37.3541 18.1526 37.6169C18.34 37.8797 18.5882 38.0927 18.8758 38.2374C19.1564 38.3923 19.4704 38.4756 19.7905 38.48C20.1105 38.4845 20.4268 38.4099 20.7115 38.2629L26.8385 34.8981L33.4383 42.803C33.6046 43.0002 33.8116 43.1585 34.045 43.2671C34.2783 43.3756 34.5323 43.4317 34.7894 43.4315C34.9854 43.4307 35.1798 43.395 35.3636 43.3262C35.6978 43.2024 35.9856 42.9775 36.1876 42.6825C36.3896 42.3875 36.4959 42.0368 36.4917 41.6786V20.0274C38.2717 21.4202 40.9417 22.9812 43.6117 24.7289L43.61 24.9905ZM47.17 65.2237V24.7289C60.5116 13.6137 78.0751 10.0044 78.2913 9.9619C78.3453 9.99247 78.32 10.2065 78.32 10.6413V49.908C78.32 50.7997 77.8978 51.508 77.5009 51.5879C66.5797 54.0291 56.2624 58.6674 47.17 65.2237ZM81.4916 67.7426H53.9506C62.9178 64.4175 72.3348 62.4801 81.88 61.9965V66.1596C81.88 66.7863 82.1164 67.7341 81.4916 67.7341V67.7426ZM85.44 56.9824C85.4475 57.1278 85.4258 57.2732 85.376 57.4099C85.3262 57.5466 85.2495 57.6717 85.1505 57.7779C85.0514 57.884 84.9321 57.9689 84.7996 58.0275C84.6671 58.086 84.5242 58.1171 84.3794 58.1187C76.7096 58.233 69.0753 59.1911 61.6127 60.9756C66.8537 58.5123 72.3468 56.6328 77.9941 55.3705C79.1595 55.0358 80.1779 54.314 80.8833 53.3226C81.5887 52.3313 81.9394 51.1289 81.8783 49.9114V16.632C82.7683 16.5709 84.1312 16.5675 84.1717 16.5675C84.4859 16.5633 84.7902 16.6777 85.0246 16.888C85.2591 17.0984 85.4067 17.3894 85.4383 17.7038L85.44 56.9824Z" fill="#4840BB"/>
</g>
<defs>
<clipPath id="clip0_168_2774">
<rect width="89" height="74" fill="white"/>
</clipPath>
</defs>
</svg>
